<?xml version="1.0" standalone="no"?>
<!DOCTYPE svg PUBLIC "-//W3C//DTD SVG 20010904//EN"
 "http://www.w3.org/TR/2001/REC-SVG-20010904/DTD/svg10.dtd">
<svg version="1.0" xmlns="http://www.w3.org/2000/svg"
 width="120.000000pt" height="120.000000pt" viewBox="0 0 120.000000 120.000000"
 preserveAspectRatio="xMidYMid meet">

<g transform="translate(0.000000,120.000000) scale(0.100000,-0.100000)"
fill="#000000" stroke="none">
<path d="M456 1175 c-217 -55 -380 -220 -437 -443 -24 -96 -24 -179 1 -276 28
-112 73 -189 160 -277 146 -147 337 -205 535 -164 205 43 375 193 446 395 31
87 34 276 5 360 -32 96 -79 173 -146 241 -72 73 -131 111 -229 147 -85 31
-246 39 -335 17z m-73 -122 c5 -3 12 -16 17 -29 10 -24 43 -33 55 -14 10 15
43 12 53 -6 8 -14 10 -14 21 0 18 21 50 20 58 -1 4 -10 17 -27 29 -38 12 -11
29 -35 38 -52 9 -18 24 -33 33 -33 13 0 12 -5 -8 -27 -13 -14 -18 -23 -10 -18
11 6 13 4 8 -8 -5 -14 0 -17 34 -17 42 0 52 -21 13 -29 -32 -6 -43 -33 -44
-108 0 -69 9 -89 27 -60 14 23 106 77 130 77 39 0 63 -18 63 -48 0 -51 -41
-98 -134 -158 -49 -31 -24 2 29 38 52 36 99 105 89 131 -12 33 -63 28 -102
-11 -10 -9 -30 -27 -46 -39 -23 -19 -27 -27 -21 -50 4 -16 8 -45 9 -65 2 -30
0 -35 -11 -26 -7 6 -13 27 -13 47 -1 20 -9 51 -19 70 l-18 34 -7 -71 c-6 -61
-4 -79 14 -119 15 -35 20 -63 18 -102 -3 -53 -2 -56 30 -74 21 -12 60 -22 105
-25 l71 -5 -33 29 c-19 18 -34 42 -37 62 -3 18 -12 49 -21 69 -12 31 -16 34
-24 20 -7 -11 -5 -27 6 -49 l16 -33 -25 28 c-20 21 -26 39 -26 73 l0 45 28
-29 c16 -16 34 -43 41 -60 8 -18 18 -32 23 -32 5 0 6 -5 3 -11 -19 -30 43 -99
90 -99 8 0 15 -3 15 -7 0 -15 -188 -20 -407 -11 -23 0 -40 5 -37 10 4 5 -7 3
-22 -5 -29 -14 -54 -12 -65 6 -4 5 -15 5 -28 -2 -17 -10 -21 -9 -21 4 0 12 -4
14 -19 5 -11 -5 -27 -10 -37 -10 -12 0 -7 11 21 46 20 25 35 47 33 49 -7 8
-77 -45 -88 -66 -17 -31 11 -66 62 -80 58 -15 207 -16 298 -1 120 20 140 22
140 13 0 -29 -342 -55 -426 -32 -125 34 -124 115 1 179 22 12 60 40 84 64 24
24 58 50 75 58 21 10 40 33 61 74 16 33 25 61 20 63 -30 10 -40 22 -28 34 10
10 17 9 33 -6 11 -10 23 -15 26 -12 12 12 8 141 -4 145 -7 2 -12 10 -12 17 0
8 -10 15 -22 17 -40 6 -33 28 10 28 37 0 40 2 35 23 -3 12 -10 28 -16 35 -7 9
-4 12 13 12 30 0 21 20 -25 51 -43 30 -92 34 -100 9 -7 -21 -119 -44 -146 -30
-10 6 -27 10 -38 10 -14 0 -21 6 -21 19 0 11 -4 23 -10 26 -16 10 -11 45 11
76 17 24 25 28 47 23 15 -4 31 -9 35 -11z m542 -789 c22 -34 15 -30 -30 17
-31 32 -34 38 -13 25 15 -10 34 -28 43 -42z"/>
<path d="M298 984 c13 -24 40 -49 47 -43 2 3 -10 18 -27 34 -23 22 -28 24 -20
9z"/>
<path d="M655 770 c-3 -5 1 -10 9 -10 9 0 16 5 16 10 0 6 -4 10 -9 10 -6 0
-13 -4 -16 -10z"/>
<path d="M663 680 c0 -36 2 -50 4 -32 2 17 2 47 0 65 -2 17 -4 3 -4 -33z"/>
<path d="M577 473 c-2 -5 -7 -21 -11 -38 l-6 -30 21 25 c12 14 16 26 10 28 -6
2 -9 8 -5 13 3 5 3 9 0 9 -3 0 -7 -3 -9 -7z"/>
<path d="M639 384 c-10 -21 -13 -37 -7 -40 5 -4 8 -14 5 -24 -6 -23 31 -47 39
-25 8 20 -1 104 -12 115 -5 4 -16 -7 -25 -26z"/>
<path d="M560 350 c0 -5 -15 -26 -32 -46 -23 -26 -27 -34 -13 -27 36 20 78 83
55 83 -6 0 -10 -4 -10 -10z"/>
<path d="M429 303 l-34 -37 35 28 c32 26 35 27 41 10 6 -15 8 -14 8 9 1 36 -8
34 -50 -10z"/>
</g>
</svg>
